<svg xmlns="http://www.w3.org/2000/svg" xmlns:xlink="http://www.w3.org/1999/xlink" width="121.602" height="58.772" viewBox="0 0 121.602 58.772">
  <defs>
    <clipPath id="clip-path">
      <rect id="Rectangle_380" data-name="Rectangle 380" width="121.602" height="58.772" fill="none"/>
    </clipPath>
  </defs>
  <g id="Group_35" data-name="Group 35" transform="translate(-5.767 -14.176)">
    <g id="Group_83" data-name="Group 83" transform="translate(5.767 14.176)">
      <g id="Group_82" data-name="Group 82" clip-path="url(#clip-path)">
        <path id="Path_484" data-name="Path 484" d="M223.946,85.288a8.17,8.17,0,0,1-.57,2.9,7.6,7.6,0,0,1-1.579,2.46,7.277,7.277,0,0,1-2.42,1.735,7.112,7.112,0,0,1-2.886.6h-.027a7.05,7.05,0,0,1-2.86-.6,7.551,7.551,0,0,1-2.446-1.735,8.007,8.007,0,0,1-2.149-5.359V73.69h4.349V85.211a3.552,3.552,0,0,0,.246,1.32,3.5,3.5,0,0,0,.673,1.087,3.218,3.218,0,0,0,1,.738,2.793,2.793,0,0,0,1.217.272,2.711,2.711,0,0,0,1.2-.272,3.263,3.263,0,0,0,.983-.738,3.5,3.5,0,0,0,.674-1.087,3.56,3.56,0,0,0,.245-1.32V73.69h4.349Z" transform="translate(-118.463 -47.176)" fill="#f5f5f4"/>
        <path id="Path_485" data-name="Path 485" d="M257.875,87.03a6.226,6.226,0,0,1-.065.907,6.667,6.667,0,0,1-.194.88,6.13,6.13,0,0,1-.829,1.683,5.787,5.787,0,0,1-1.295,1.333,6.06,6.06,0,0,1-1.656.867,5.861,5.861,0,0,1-1.916.311,5.762,5.762,0,0,1-2.317-.466,6.024,6.024,0,0,1-3.172-3.184,5.862,5.862,0,0,1-.466-2.33h4.349a1.593,1.593,0,0,0,.466,1.152,1.528,1.528,0,0,0,1.139.479,1.51,1.51,0,0,0,.958-.324,1.639,1.639,0,0,0,.569-.815,1.322,1.322,0,0,0,.077-.466,1.385,1.385,0,0,0-.466-1.087,1.656,1.656,0,0,0-1.139-.414A5.885,5.885,0,0,1,249.6,85.1a6.084,6.084,0,0,1-1.89-1.243,5.8,5.8,0,0,1-1.282-1.851,5.679,5.679,0,0,1-.466-2.3,5.973,5.973,0,0,1,.065-.881,6.361,6.361,0,0,1,.194-.88,6.135,6.135,0,0,1,.829-1.683,5.76,5.76,0,0,1,1.295-1.333A6.083,6.083,0,0,1,250,74.059a5.862,5.862,0,0,1,1.916-.31,5.756,5.756,0,0,1,2.317.466,6.022,6.022,0,0,1,3.171,3.184,5.785,5.785,0,0,1,.466,2.3h-4.35a1.592,1.592,0,0,0-1.6-1.606,1.517,1.517,0,0,0-.958.323,1.648,1.648,0,0,0-.57.816,1.194,1.194,0,0,0-.077.466,1.386,1.386,0,0,0,.466,1.087,1.653,1.653,0,0,0,1.139.413,5.911,5.911,0,0,1,2.317.454,6.1,6.1,0,0,1,1.89,1.242,5.791,5.791,0,0,1,1.281,1.852,5.6,5.6,0,0,1,.466,2.278" transform="translate(-138.956 -47.209)" fill="#f5f5f4"/>
      </g>
    </g>
    <path id="Path_486" data-name="Path 486" d="M24.232,87.357v4.35h-9.5V72.445h4.35V87.357Z" transform="translate(-4.97 -32.31)" fill="#f5f5f4"/>
    <g id="Group_85" data-name="Group 85" transform="translate(5.767 14.176)">
      <g id="Group_84" data-name="Group 84" clip-path="url(#clip-path)">
        <path id="Path_487" data-name="Path 487" d="M52.448,83.985a8.192,8.192,0,0,1-.57,2.9A7.6,7.6,0,0,1,50.3,89.344a7.279,7.279,0,0,1-2.421,1.735,7.115,7.115,0,0,1-2.887.6h-.026a7.053,7.053,0,0,1-2.861-.6,7.542,7.542,0,0,1-2.446-1.735,8,8,0,0,1-2.149-5.359v-11.6h4.349V83.908a3.549,3.549,0,0,0,.246,1.32,3.49,3.49,0,0,0,.673,1.087,3.234,3.234,0,0,0,1,.738,2.792,2.792,0,0,0,1.217.271,2.714,2.714,0,0,0,1.2-.271,3.277,3.277,0,0,0,.984-.738,3.49,3.49,0,0,0,.673-1.087,3.558,3.558,0,0,0,.245-1.32V72.387h4.35Z" transform="translate(-23.368 -46.453)" fill="#f5f5f4"/>
      </g>
    </g>
    <path id="Path_488" data-name="Path 488" d="M92.337,91.706h-4.35V84.975l-2.356,6.731h-4.35l-2.408-6.939v6.939H74.526V72.445h4.427l4.5,13,4.53-13h4.35Z" transform="translate(-38.126 -32.31)" fill="#f5f5f4"/>
    <rect id="Rectangle_382" data-name="Rectangle 382" width="4.349" height="19.261" transform="translate(56.075 40.135)" fill="#f5f5f4"/>
    <path id="Path_489" data-name="Path 489" d="M146.823,72.445V91.706h-4.4l-5.437-10.77v10.77h-4.349V72.445h4.427l5.411,10.744V72.445Z" transform="translate(-70.348 -32.31)" fill="#f5f5f4"/>
    <g id="Group_87" data-name="Group 87" transform="translate(5.767 14.176)">
      <g id="Group_86" data-name="Group 86" clip-path="url(#clip-path)">
        <path id="Path_490" data-name="Path 490" d="M177.863,99.8a5.517,5.517,0,0,0,8.27-.178c.3-.347-.2-.858-.509-.508a4.8,4.8,0,0,1-7.253.177c-.323-.333-.831.176-.508.509" transform="translate(-101.136 -61.208)" fill="#f5f5f4"/>
        <path id="Path_491" data-name="Path 491" d="M185.9,14.523V36.738a.36.36,0,0,0,.719,0V14.523a.36.36,0,0,0-.719,0" transform="translate(-105.649 -14.176)" fill="#f5f5f4"/>
        <path id="Path_492" data-name="Path 492" d="M173.2,61.159a.788.788,0,0,0,.788.788h5.121a.788.788,0,1,0,0-1.577h-5.121a.788.788,0,0,0-.788.789m-.318,2.158a.788.788,0,0,0,.788.789h5.757a.788.788,0,1,0,0-1.577h-5.757a.788.788,0,0,0-.788.788m3.916,1.834-2.99.008a1.537,1.537,0,0,0-1.549,1.493c-.046,1.641-.267,2.1-1.968,4.083a7.837,7.837,0,0,0,.642,10.9,8.263,8.263,0,0,0,11.348-.118,7.82,7.82,0,0,0,.573-10.723c-.305-.362-.566-.656-.8-.915-.725-.818-.969-1.093-1.1-1.745a.863.863,0,0,0-1.69.35,5.012,5.012,0,0,0,1.5,2.541c.224.251.476.536.767.881a6.1,6.1,0,0,1-.451,8.369,6.562,6.562,0,0,1-8.976.094,6.11,6.11,0,0,1-.505-8.505c1.7-1.983,2.287-2.842,2.376-4.974l2.825-.007a.864.864,0,0,0,0-1.727Zm-1.86-6.931h3.223a.785.785,0,1,1,0,1.57H174.94a.785.785,0,1,1,0-1.57" transform="translate(-95.941 -38.598)" fill="#f5f5f4"/>
        <path id="Path_493" data-name="Path 493" d="M188.177,92.034a.359.359,0,0,0,0-.719.359.359,0,0,0,0,.719" transform="translate(-106.719 -56.949)" fill="#f5f5f4"/>
        <path id="Path_494" data-name="Path 494" d="M190.76,91.065a.36.36,0,0,0,0-.719.36.36,0,0,0,0,.719" transform="translate(-108.152 -56.412)" fill="#f5f5f4"/>
      </g>
    </g>
  </g>
</svg>
